<?xml version="1.0" encoding="UTF-8" standalone="no"?><!DOCTYPE svg PUBLIC "-//W3C//DTD SVG 1.1//EN" "http://www.w3.org/Graphics/SVG/1.1/DTD/svg11.dtd"><svg width="100%" height="100%" viewBox="0 0 32 32" version="1.1" xmlns="http://www.w3.org/2000/svg" xmlns:xlink="http://www.w3.org/1999/xlink" xml:space="preserve" style="fill-rule:evenodd;clip-rule:evenodd;stroke-linejoin:round;stroke-miterlimit:2;"><path d="M32,3.2c0,-1.766 -1.434,-3.2 -3.2,-3.2l-25.6,0c-1.766,0 -3.2,1.434 -3.2,3.2l0,25.6c0,1.766 1.434,3.2 3.2,3.2l25.6,0c1.766,0 3.2,-1.434 3.2,-3.2l0,-25.6Z" style="fill:#fff;fill-opacity:0.65;"/><path d="M30.903,4.077c0,-1.645 -1.335,-2.98 -2.98,-2.98l-23.846,-0c-1.645,-0 -2.98,1.335 -2.98,2.98l-0,23.846c-0,1.645 1.335,2.98 2.98,2.98l23.846,0c1.645,0 2.98,-1.335 2.98,-2.98l0,-23.846Z" style="fill:#fff;fill-opacity:0.5;"/><g><path d="M18.451,10.649l0,-5.814c-1.265,-0.309 -2.13,-0.433 -3.394,-0.433c-6.655,0 -12.444,5.134 -12.444,11.503c-0,6.619 5.856,11.505 12.511,11.505c1.197,0 1.863,-0.124 3.327,-0.495l0,-5.937c-1.464,0.679 -2.196,0.865 -3.394,0.865c-3.659,0 -6.521,-2.845 -6.521,-6.06c0,-3.279 2.794,-6.062 6.454,-6.062c1.265,-0 2.33,0.31 3.461,0.928Z" style="fill:#5ab48f;"/><path d="M29.422,10.966l-10.647,-0l-0,4.514l5.856,0l4.791,-4.514Z" style="fill:#5ab48f;"/><path d="M24.698,16.407l-5.923,0l-0,4.516l10.647,-0l-4.724,-4.516Z" style="fill:#5ab48f;"/></g></svg>