<?xml version="1.0" encoding="utf-8"?>
<!DOCTYPE svg PUBLIC "-//W3C//DTD SVG 1.1//EN" "http://www.w3.org/Graphics/SVG/1.1/DTD/svg11.dtd">
<svg version="1.1" xmlns="http://www.w3.org/2000/svg" xmlns:xlink="http://www.w3.org/1999/xlink" x="0px" y="0px" width="40px"
	 height="40px" viewBox="0 0 40 40" enable-background="new 0 0 40 40" xml:space="preserve">
<style>
g { display: none; }
g:target { display: inline; }
</style>
<g id="expand" x="0" y="0" fill="#555">
	<polygon points="13,0 0,0 0,13 4,13 4,6.819 13.242,16.071 16.071,13.243 6.819,4 13,4 	"/>
	<polygon points="26.986,-0.042 39.986,-0.042 39.986,12.958 35.986,12.958 35.986,6.776 26.744,16.029 23.915,13.2 33.168,3.958 
		26.986,3.958 	"/>
	<polygon points="26.986,40 39.986,40 39.986,27 35.986,27 35.986,33.182 26.744,23.929 23.915,26.758 33.168,36 26.986,36 	"/>
	<polygon points="13,40 0,40 0,27 4,27 4,33.182 13.242,23.929 16.071,26.758 6.818,36 13,36 	"/>
</g>
<g id="contract" x="0" y="0" fill="#555">
	<polygon points="3,16 16,16 16,3 12,3 12,9.252 2.793,0 -0.018,2.793 9.252,12 3,12 	"/>
	<polygon points="36.916,16.029 23.916,16.029 23.916,3.029 27.916,3.029 27.916,9.211 37.158,-0.042 39.987,2.787 30.734,12.029 
		36.916,12.029 	"/>
	<polygon points="36.916,23.93 23.916,23.93 23.916,36.93 27.916,36.93 27.916,30.748 37.158,40.001 39.987,37.172 30.734,27.93 
		36.916,27.93 	"/>
	<polygon points="3.071,23.93 16.071,23.93 16.071,36.93 12.071,36.93 12.071,30.748 2.829,40.001 0,37.172 9.253,27.93 
		3.071,27.93 	"/>
</g>
<g id="expand-dark" x="0" y="0" fill="#99989a">
	<polygon points="13,0 0,0 0,13 4,13 4,6.819 13.242,16.071 16.071,13.243 6.819,4 13,4 	"/>
	<polygon points="26.986,-0.042 39.986,-0.042 39.986,12.958 35.986,12.958 35.986,6.776 26.744,16.029 23.915,13.2 33.168,3.958 
		26.986,3.958 	"/>
	<polygon points="26.986,40 39.986,40 39.986,27 35.986,27 35.986,33.182 26.744,23.929 23.915,26.758 33.168,36 26.986,36 	"/>
	<polygon points="13,40 0,40 0,27 4,27 4,33.182 13.242,23.929 16.071,26.758 6.818,36 13,36 	"/>
</g>
<g id="contract-dark" x="0" y="0" fill="#99989a">
	<polygon points="3,16 16,16 16,3 12,3 12,9.252 2.793,0 -0.018,2.793 9.252,12 3,12 	"/>
	<polygon points="36.916,16.029 23.916,16.029 23.916,3.029 27.916,3.029 27.916,9.211 37.158,-0.042 39.987,2.787 30.734,12.029 
		36.916,12.029 	"/>
	<polygon points="36.916,23.93 23.916,23.93 23.916,36.93 27.916,36.93 27.916,30.748 37.158,40.001 39.987,37.172 30.734,27.93 
		36.916,27.93 	"/>
	<polygon points="3.071,23.93 16.071,23.93 16.071,36.93 12.071,36.93 12.071,30.748 2.829,40.001 0,37.172 9.253,27.93 
		3.071,27.93 	"/>
</g>
</svg>
