<?xml version="1.0" encoding="utf-8"?>
<!DOCTYPE svg PUBLIC "-//W3C//DTD SVG 1.1//EN" "http://www.w3.org/Graphics/SVG/1.1/DTD/svg11.dtd">
<svg version="1.1" id="Layer_4" xmlns="http://www.w3.org/2000/svg" xmlns:xlink="http://www.w3.org/1999/xlink" x="0px" y="0px"
	 width="260px" height="31px" viewBox="0 0 260 31" enable-background="new 0 0 260 31" xml:space="preserve">
<g fill-rule="evenodd" clip-rule="evenodd">
	<path fill="#4448a3" d="M17.1533,7.2798V0.5044C15.7832,0.1445,14.8462,0,13.4775,0
		C6.27,0,0,5.9824,0,13.4043c0,7.7139,6.3423,13.4082,13.5498,13.4082c1.2964,0,2.0181-0.1445,3.6035-0.5771v-6.9185
		c-1.5854,0.791-2.3789,1.0078-3.6758,1.0078c-3.9634,0-7.0625-3.3149-7.0625-7.0625c0-3.8203,3.0264-7.064,6.9902-7.064
		C14.7744,6.1982,15.9282,6.5591,17.1533,7.2798L17.1533,7.2798z"/>
	<polygon fill="#4448a3" points="29.0352,7.6489 17.5034,7.6489 17.5034,12.9097 23.8462,12.9097 
		29.0352,7.6489 	"/>
	<polygon fill="#d63b3a" points="23.9185,13.9902 17.5034,13.9902 17.5034,19.252 29.0352,19.252 
		23.9185,13.9902 	"/>
</g>
<g fill="#232324" fill-rule="evenodd" clip-rule="evenodd">
	<path d="M90.0112,8.668h-3.2437v9.5127h3.4595v-4.8994
		c0-1.4424,0.8647-1.9458,2.6665-1.9458c1.8022,0,2.3062,0.5752,2.3062,2.4497v4.3955h3.5317v-5.0439
		c0-1.3696,1.0093-1.8013,2.667-1.8013c1.585,0,2.3784,0.5034,2.3784,1.8013v5.0439h3.459v-5.6201
		c0-2.811-1.729-4.1089-4.9004-4.1089c-2.7388,0-3.6753,0.937-4.1084,2.0903c-0.7207-1.2251-1.729-2.0903-4.4688-2.0903
		c-2.5942,0-3.2432,0.8652-3.7471,2.4507V8.668L90.0112,8.668z"/>
	<path d="M66.7295,8.668h-3.2437v9.5127h3.4595v-4.8994
		c0-1.4424,0.7202-1.9458,2.6665-1.9458c1.8013,0,2.3066,0.6479,2.3066,2.4497v4.3955h3.5317v-5.0439
		c0-1.3696,1.0811-1.8013,2.7393-1.8013c1.585,0,2.3057,0.4316,2.3057,1.8013v5.0439h3.4595v-5.6201
		c0-2.811-1.73-4.1089-4.9009-4.1089c-2.7388,0-3.748,1.0093-4.1079,2.0903c-0.7217-1.2251-1.73-2.0903-4.4688-2.0903
		c-2.5947,0-3.3149,0.8652-3.7476,2.4507V8.668L66.7295,8.668z"/>
	<path d="M134.9141,4.6216v5.5493c-0.7944-1.0806-1.5137-1.6562-4.3975-1.6562
		c-4.6123,0-5.478,1.2246-5.478,4.9727c0,3.8203,1.2261,4.9014,5.6943,4.9014c2.811,0,3.6758-0.7202,4.3252-1.9473v1.7295h3.4585
		V4.6216H134.9141L134.9141,4.6216z M132.3887,11.2495c1.9468,0,2.5947,0.2886,2.5947,1.8032c0,2.3042-0.144,2.522-2.8823,2.522
		c-2.7388,0-3.4595-0.0723-3.4595-2.019C128.6416,11.3213,129.5063,11.2495,132.3887,11.2495L132.3887,11.2495z"/>
	<path d="M61.248,13.2764c0-3.8916-1.0815-4.6841-6.6313-4.6841
		c-5.9819,0-6.7021,0.937-6.7021,4.9731c0,4.1084,1.0088,4.9722,6.7021,4.9722C60.6714,18.5376,61.248,17.5283,61.248,13.2764
		L61.248,13.2764z M51.46,13.4932c0-1.9463,0.4331-2.1621,2.9551-2.1621c2.811,0,3.3154,0.0718,3.3154,2.1621
		c0,1.9468-0.3599,2.3047-3.0273,2.3047C51.8208,15.7979,51.46,15.5093,51.46,13.4932L51.46,13.4932z"/>
	<path d="M154.0195,13.2764c0-3.8916-1.0811-4.6841-6.6309-4.6841
		c-5.9829,0-6.7031,0.937-6.7031,4.9731c0,4.1084,1.0088,4.9722,6.7031,4.9722C153.4424,18.5376,154.0195,17.5283,154.0195,13.2764
		L154.0195,13.2764z M144.2124,13.4932c0-1.9463,0.4326-2.1621,2.9546-2.1621c2.8115,0,3.3164,0.0718,3.3164,2.1621
		c0,1.9468-0.3613,2.3047-3.0273,2.3047C144.5728,15.7979,144.2124,15.5093,144.2124,13.4932L144.2124,13.4932z"/>
	<path d="M122.874,13.2764c0-3.8916-1.1538-4.6841-6.7041-4.6841
		c-5.981,0-6.7017,1.0088-6.7017,5.0435c0,4.0381,1.0083,4.9019,6.7017,4.9019C122.2246,18.5376,122.874,17.5283,122.874,13.2764
		L122.874,13.2764z M113.0039,13.5044c0-1.9453,0.4316-2.1611,2.9546-2.1611c2.8096,0,3.3154,0.0723,3.3154,2.1611
		c0,1.9473-0.3599,2.3071-3.0273,2.3071C113.3638,15.8115,113.0039,15.5239,113.0039,13.5044L113.0039,13.5044z"/>
	<path d="M42.3721,12.7002h3.46c-0.2891-3.2432-1.2251-4.0361-6.0547-4.0361
		c-5.4775,0-6.7026,0.8652-6.7026,4.9014s1.1533,4.9722,6.271,4.9722c5.4048,0,6.4863-0.7212,6.4863-4.1069h-3.46
		c0,0.936-0.3599,1.3691-3.0264,1.3691c-2.3076,0-2.8115-0.5781-2.8115-2.4507c0-1.8022,0.5039-1.8022,3.2432-1.8022
		C41.7954,11.5469,42.1562,11.7632,42.3721,12.7002L42.3721,12.7002z"/>
	<path d="M175.3525,16.3027c-3.3154,0-3.8208-0.2881-3.8208-1.9443h9.0815
		c-0.144-4.6138-0.144-5.6943-6.27-5.6943c-5.1895,0-6.3418,0.937-6.3418,5.0439c0,3.8203,1.5132,4.7583,5.6934,4.8296
		c4.6855,0,6.9185-0.2153,6.9185-3.3159h-3.3862C177.0815,15.9424,176.7935,16.3027,175.3525,16.3027L175.3525,16.3027z
		 M171.4531,12.3472c0.1445-1.0088,0.4326-1.3691,2.7393-1.3691c2.522,0,2.8823,0.1436,3.0264,1.3691H171.4531L171.4531,12.3472z"/>
	<path d="M159.4219,8.668h-3.3154v9.5127h3.46V13.209c0-1.2983,0.793-1.9463,2.2349-1.9463
		c1.4409,0,1.8018,0.4331,1.874,1.6582h3.2427c0-3.2437-0.4326-4.4692-3.8921-4.4692c-2.0908,0-2.811,0.4326-3.604,2.0181V8.668
		L159.4219,8.668z"/>
	<path d="M191.9756-0.1206h15.5459c5.4219,0,6.7324,2.7236,6.7324,6.3721v1.5933c0,2.7754-1.208,5.9614-5.2422,5.9614h-11.3315
		v4.6768h-5.7046V-0.1206z M197.6802,9.1812h8.8647c1.3364,0,1.8501-0.874,1.8501-1.9785V6.4829
		c0-1.2588-0.6167-1.9785-2.3384-1.9785h-8.3765V9.1812z"/>
	<path d="M216.0513-0.1206h20.3511v4.3164h-14.6465v2.981h13.8755v3.8545h-13.8755v2.9805h14.9805v4.4712h-20.6851V-0.1206z"/>
	<path d="M237.5317-0.1206h21.7388v4.625h-8.0176v13.9785h-5.7041V4.5044h-8.0171V-0.1206z"/>
</g>
<g fill="#4448a3" fill-rule="evenodd" clip-rule="evenodd">
	<path d="M195.4478,29.4829c0-1.2632,0.6157-1.5913,1.9272-1.687l2.5742-0.1841c1.1274-0.0801,1.2236-0.3677,1.2236-1.1035
		c0-0.8394-0.1758-1.2148-1.2153-1.2148h-2.4307c-0.8315,0-1.3193,0.0879-1.3193,1.2393v0.3198h-0.7358v-0.5439
		c0-1.2153,0.6641-1.6548,2.0312-1.6548h2.4463c1.6631,0,1.959,0.7515,1.959,1.8945c0,1.5435-0.5835,1.6392-2.4863,1.7671
		l-1.1992,0.0801c-1.8394,0.1201-2.0391,0.1919-2.0391,0.9595v0.5117h5.8047v0.6396h-6.5405V29.4829z"/>
	<path d="M202.8208,26.5884c0-1.2554,0.4238-1.9346,1.9907-1.9346h2.7505c1.5674,0,1.9912,0.6792,1.9912,1.9346v2.0469
		c0,1.2554-0.4238,1.9351-1.9912,1.9351h-2.7505c-1.5669,0-1.9907-0.6797-1.9907-1.9351V26.5884z M208.8174,26.9565
		c0-1.5034-0.2236-1.6631-1.7588-1.6631h-1.7432c-1.5352,0-1.7593,0.1597-1.7593,1.6631v1.311
		c0,1.5034,0.2241,1.6631,1.7593,1.6631h1.7432c1.5352,0,1.7588-0.1597,1.7588-1.6631V26.9565z"/>
	<path d="M210.2891,26.5884c0-1.2554,0.4238-1.9346,1.9907-1.9346h2.7505c1.5674,0,1.9912,0.6792,1.9912,1.9346v2.0469
		c0,1.2554-0.4238,1.9351-1.9912,1.9351h-2.7505c-1.5669,0-1.9907-0.6797-1.9907-1.9351V26.5884z M216.2856,26.9565
		c0-1.5034-0.2236-1.6631-1.7588-1.6631h-1.7432c-1.5352,0-1.7593,0.1597-1.7593,1.6631v1.311
		c0,1.5034,0.2241,1.6631,1.7593,1.6631h1.7432c1.5352,0,1.7588-0.1597,1.7588-1.6631V26.9565z"/>
	<path d="M220.1479,25.3892l-2.1665,1.7192l-0.3999-0.5039l2.3828-1.8872h0.9194v5.7891h-0.7358V25.3892z"/>
	<path d="M222.9629,28.6831h0.7358v0.4082c0,0.5674,0.3037,0.8394,1.2793,0.8394h2.4307c1.1353,0,1.4712-0.2397,1.4712-1.0713
		c0-0.7275-0.2881-0.9116-1.2637-0.9116h-1.4868c-2.3906,0-3.1743-0.144-3.1743-1.6792c0-1.3193,0.7837-1.6147,2.3984-1.6147
		h1.6875c1.9429,0,2.4307,0.4956,2.4307,1.5269v0.1997h-0.7358c-0.0161-0.9194-0.1118-1.0869-2.167-1.0869h-0.8315
		c-1.5107,0-2.0469,0.0796-2.0469,1.0312c0,0.6875,0.2158,0.9194,1.4395,0.9194h2.3188c1.5269,0,2.1665,0.4399,2.1665,1.4233
		v0.3755c0,1.4233-1.167,1.5273-2.3267,1.5273h-2.1748c-1.1431,0-2.1509-0.1997-2.1509-1.4634V28.6831z"/>
	<path d="M230.4561,28.0117c0-1.479,1.0234-1.647,1.999-1.647h1.103c1.2314,0,2.1191,0.3115,2.1191,1.7671v0.4556h-4.5337v0.2559
		c0,0.9277,0.4478,1.1675,1.647,1.1675h0.9438c0.8633,0,1.2148-0.1118,1.2549-0.7358h0.688v0.0801
		c0,0.9355-0.7759,1.2153-2.0552,1.2153h-1.2471c-0.8955,0-1.9189-0.168-1.9189-1.6709V28.0117z M234.9893,27.7559
		c0-0.4155-0.3115-0.8315-1.4312-0.8315h-1.0073c-1.0874,0-1.3433,0.1758-1.4072,1.1035h3.8457V27.7559z"/>
	<path d="M236.5732,26.4287h0.6396V27.02h0.0161c0.2559-0.5273,0.7754-0.6553,1.2471-0.6553h0.6479
		c1.2871,0,1.7109,0.4155,1.7109,1.415v0.4878h-0.6396v-0.1758c0-1.0073-0.208-1.1675-1.4312-1.1675h-0.4238
		c-0.7275,0-1.0796,0.4639-1.0796,0.9912v2.5908h-0.6875V26.4287z"/>
	<path d="M241.5068,24.7173h0.6875v0.752h-0.6875V24.7173z M241.5068,26.4287h0.6875v4.0776h-0.6875V26.4287z"/>
	<path d="M243.1621,28.0117c0-1.479,1.0234-1.647,1.999-1.647h1.103c1.2314,0,2.1191,0.3115,2.1191,1.7671v0.4556h-4.5337v0.2559
		c0,0.9277,0.4478,1.1675,1.647,1.1675h0.9438c0.8633,0,1.2148-0.1118,1.2549-0.7358h0.688v0.0801
		c0,0.9355-0.7759,1.2153-2.0552,1.2153h-1.2471c-0.8955,0-1.9189-0.168-1.9189-1.6709V28.0117z M247.6953,27.7559
		c0-0.4155-0.3115-0.8315-1.4312-0.8315h-1.0073c-1.0874,0-1.3433,0.1758-1.4072,1.1035h3.8457V27.7559z"/>
	<path d="M249.0713,29.0991h0.6396v0.1997c0,0.5039,0.2642,0.7119,0.9678,0.7119h1.4712c1.0312,0,1.3589-0.04,1.3589-0.6479
		v-0.0317c0-0.3921-0.1118-0.6079-0.9355-0.6079h-2.1187c-0.9673,0-1.3271-0.3115-1.3271-1.0874V27.396
		c0-0.6636,0.3755-1.0312,2.0708-1.0312h1.0557c1.5508,0,1.7666,0.4478,1.7666,1.0234v0.2158h-0.6396v-0.04
		c0-0.6235-0.4155-0.6396-1.167-0.6396h-1.1997c-0.9834,0-1.1992,0.0957-1.1992,0.5596v0.1519
		c0,0.3359,0.1118,0.5278,0.8315,0.5278h1.8149c1.0317,0,1.7354,0.104,1.7354,1.2075v0.0161c0,1.1431-1.0557,1.1831-1.895,1.1831
		h-1.2637c-1.0151,0-1.9668,0-1.9668-1.2231V29.0991z"/>
</g>
</svg>
